<?xml version="1.0" encoding="UTF-8" standalone="no"?>
<!-- Created with Inkscape (http://www.inkscape.org/) -->
<svg
   xmlns:svg="http://www.w3.org/2000/svg"
   xmlns="http://www.w3.org/2000/svg"
   xmlns:xlink="http://www.w3.org/1999/xlink"
   version="1.0"
   width="300"
   height="64"
   id="svg2">
  <defs
     id="defs4">
    <radialGradient
       cx="32.9417"
       cy="33.260441"
       r="21.619955"
       fx="32.9417"
       fy="33.260441"
       id="radialGradient4565"
       xlink:href="#linearGradient4559"
       gradientUnits="userSpaceOnUse"
       gradientTransform="matrix(1,0,0,1.067152,0.117719,-2.68789)" />
    <radialGradient
       cx="32.028057"
       cy="32.0919"
       r="32.028057"
       fx="32.028057"
       fy="32.0919"
       id="radialGradient8353"
       xlink:href="#linearGradient8347"
       gradientUnits="userSpaceOnUse"
       gradientTransform="matrix(1,1.254946e-7,-1.197067e-7,1.051088,3.841615e-6,-1.639519)" />
    <linearGradient
       x1="31.575123"
       y1="40.307156"
       x2="13.793689"
       y2="58.900223"
       id="linearGradient4604"
       xlink:href="#linearGradient4590"
       gradientUnits="userSpaceOnUse"
       gradientTransform="translate(-1.365458,-1.83745)" />
    <linearGradient
       id="linearGradient4584">
      <stop
         style="stop-color:black;stop-opacity:1"
         offset="0"
         id="stop4586" />
      <stop
         style="stop-color:black;stop-opacity:0"
         offset="1"
         id="stop4588" />
    </linearGradient>
    <linearGradient
       id="linearGradient4590">
      <stop
         style="stop-color:black;stop-opacity:1"
         offset="0"
         id="stop4592" />
      <stop
         style="stop-color:black;stop-opacity:0"
         offset="1"
         id="stop4594" />
    </linearGradient>
    <linearGradient
       id="linearGradient4596">
      <stop
         style="stop-color:black;stop-opacity:1"
         offset="0"
         id="stop4598" />
      <stop
         style="stop-color:black;stop-opacity:0"
         offset="1"
         id="stop4600" />
    </linearGradient>
    <marker
       refX="0"
       refY="0"
       orient="auto"
       style="overflow:visible"
       id="Arrow1Lstart">
      <path
         d="M 0,0 L 5,-5 L -12.5,0 L 5,5 L 0,0 z "
         transform="matrix(0.8,0,0,0.8,10,0)"
         style="fill-rule:evenodd;stroke:black;stroke-width:1pt;marker-start:none"
         id="path8337" />
    </marker>
    <linearGradient
       id="linearGradient8347">
      <stop
         style="stop-color:#ff0006;stop-opacity:1"
         offset="0"
         id="stop8349" />
      <stop
         style="stop-color:#fe9f38;stop-opacity:1"
         offset="0.7525773"
         id="stop8355" />
      <stop
         style="stop-color:#ffa800;stop-opacity:0"
         offset="1"
         id="stop8351" />
    </linearGradient>
    <linearGradient
       id="linearGradient4559">
      <stop
         style="stop-color:#005cff;stop-opacity:1"
         offset="0"
         id="stop4571" />
      <stop
         style="stop-color:black;stop-opacity:1"
         offset="1"
         id="stop4569" />
    </linearGradient>
  </defs>
  <g
     id="layer2">
    <g
       transform="matrix(0.790078,0,0,0.762766,142.6554,6.502398)"
       id="g6449">
      <path
         d="M 64.056114 32.0919 A 32.028057 33.66431 0 1 1  0,32.0919 A 32.028057 33.66431 0 1 1  64.056114 32.0919 z"
         transform="matrix(0.999124,0,0,0.951802,0,1.496624)"
         style="opacity:1;fill:url(#radialGradient8353);fill-opacity:1;fill-rule:nonzero;stroke:none;stroke-width:3.14781189;stroke-linecap:round;stroke-linejoin:miter;marker-start:none;marker-mid:none;marker-end:none;stroke-miterlimit:4;stroke-dasharray:3.1478118, 6.2956236;stroke-dashoffset:0;stroke-opacity:1"
         id="path6451" />
      <path
         d="M 41.311679,11.454004 C 33.773692,23.259603 24.971414,30.999906 10.760089,36.80045 C 25.713448,37.701486 37.871285,41.098196 48.161432,48.040357 C 42.304504,35.999574 40.363231,25.680857 41.311679,11.454004 z "
         style="fill:url(#radialGradient4565);fill-opacity:1;fill-rule:evenodd;stroke:black;stroke-width:2;stroke-linecap:round;stroke-linejoin:round;stroke-miterlimit:4;stroke-dasharray:none;stroke-opacity:1"
         id="path2787" />
    </g>
  </g>
  <g
     id="layer1">
    <path
       d="M 86.010544,8.1220093 C 72.630443,3.5596752 47.644979,4.1790098 47.644979,17.334986 C 47.644979,32.648334 86.42172,23.355598 86.42172,39.771369 C 86.42172,52.797233 41.340261,56.616429 4.5099899,59.38235"
       style="fill:none;fill-rule:evenodd;stroke:black;stroke-width:7.94820642;stroke-linecap:round;stroke-linejoin:round;stroke-miterlimit:4;stroke-dasharray:none;stroke-opacity:1"
       id="path1890" />
    <path
       d="M 106.80558,39.753095 C 122.30709,30.441231 132.82586,15.629022 131.69132,12.153451 C 128.90606,3.6209506 107.1162,2.3417248 98.133887,9.5236312 C 89.106977,16.741199 94.241079,32.995502 107.91334,43.084122 C 121.36705,53.011485 128.02673,54.989384 151.35802,59.390431"
       style="fill:none;fill-rule:evenodd;stroke:black;stroke-width:7.93204355;stroke-linecap:round;stroke-linejoin:round;stroke-miterlimit:4;stroke-dasharray:none;stroke-opacity:1"
       id="path1892" />
    <path
       d="M 169.25525,54.444339 C 162.44239,54.414112 146.41448,50.735534 143.65616,37.213466 C 140.70822,22.263449 155.98755,6.4276434 168.31584,6.4276434 C 181.4964,6.4276434 196.7054,21.257311 193.91493,38.132447 C 192.29003,50.307123 177.01077,54.414413 169.25525,54.444339 z "
       style="fill:none;fill-rule:evenodd;stroke:black;stroke-width:8;stroke-linecap:round;stroke-linejoin:round;stroke-miterlimit:4;stroke-dasharray:none;stroke-opacity:1"
       id="path1894" />
    <path
       d="M 214.5,6.25 L 199.07177,58.78468 C 199.07177,58.78468 212.48772,15.384628 234.98326,9.802623 C 248.30358,7.766025 248.60645,30.55932 248.60645,53.266736 C 248.60645,35.254711 252.34958,13.508334 262.25,15 C 275.19302,17.682616 295.44617,59.428227 295.44617,59.428227"
       style="fill:none;fill-rule:evenodd;stroke:black;stroke-width:8;stroke-linecap:round;stroke-linejoin:round;stroke-miterlimit:4;stroke-dasharray:none;stroke-opacity:1"
       id="path1896" />
  </g>
</svg>
